<svg width="27" height="27" viewBox="0 0 27 27" fill="none" xmlns="http://www.w3.org/2000/svg">
<path d="M26.5378 4.82932C26.292 2.52672 24.4735 0.707794 22.1707 0.46225C16.3959 -0.154083 10.6041 -0.154083 4.82952 0.46225C2.52672 0.708 0.708 2.52672 0.46225 4.82932C-0.154083 10.6039 -0.154083 16.3959 0.46225 22.1705C0.708 24.4733 2.52672 26.292 4.82932 26.5378C10.6039 27.1541 16.3959 27.1541 22.1707 26.5378C24.4735 26.292 26.292 24.4733 26.5378 22.1705C27.1541 16.3959 27.1541 10.6041 26.5378 4.82932Z" fill="url(#paint0_radial)"/>
<path d="M25.0692 5.8059C24.8513 3.76265 23.2375 2.14869 21.1941 1.93054C16.0698 1.38383 10.9302 1.38383 5.80592 1.93054C3.76267 2.14869 2.14871 3.76265 1.93056 5.8059C1.38385 10.9302 1.38385 16.0697 1.93056 21.1938C2.14871 23.2373 3.76267 24.8512 5.80592 25.0692C10.9302 25.6161 16.0698 25.6161 21.1939 25.0692C23.2373 24.8512 24.8513 23.2373 25.0692 21.1938C25.6161 16.0697 25.6161 10.9302 25.0692 5.8059Z" fill="url(#paint1_linear)"/>
<path d="M0.404572 21.6108C0.423111 21.7974 0.442268 21.984 0.46225 22.1707C0.708 24.4733 2.52672 26.292 4.82952 26.5377C10.6041 27.1541 16.3961 27.1541 22.1707 26.5377C24.4735 26.292 26.292 24.4733 26.5378 22.1707C26.5577 21.984 26.5769 21.7974 26.5956 21.6108H0.404572Z" fill="url(#paint2_linear)"/>
<path d="M26.5378 22.1705C26.869 19.0676 27.0218 15.9598 26.9971 12.8524L20.8256 6.68079C20.0545 5.80058 18.9284 5.25119 17.6051 5.20361C14.8837 5.10555 12.1536 5.1105 9.43184 5.20402C7.17126 5.28188 5.59047 6.80129 5.18507 9.03447C5.11359 9.42874 5.07075 9.82816 5.01451 10.2253V16.7722C5.04562 16.9844 5.09135 17.1955 5.10556 17.4089C5.1962 18.7673 5.75444 19.9307 6.64825 20.7178L12.9286 26.9979C16.0107 27.0196 19.0929 26.8663 22.1707 26.5377C24.4735 26.292 26.292 24.4733 26.5378 22.1705Z" fill="url(#paint3_linear)"/>
<path d="M26.5377 22.1707C26.2922 24.4731 24.4731 26.2922 22.1707 26.5378C19.0933 26.8661 16.0104 27.0196 12.9288 26.998L6.65791 20.7271C7.38486 21.3634 8.33244 21.7509 9.43203 21.7923C12.1532 21.8945 14.8839 21.8918 17.605 21.7937C20.0662 21.7048 21.8473 19.8832 21.9241 17.4219C22.0061 14.8087 22.0061 12.1887 21.9241 9.57544C21.8891 8.44 21.4905 7.44093 20.8297 6.68494L26.9973 12.8526C27.0216 15.9596 26.8688 19.0678 26.5377 22.1707Z" fill="url(#paint4_linear)"/>
<path d="M16.6859 10.5763C15.8953 9.71547 14.7609 9.17535 13.5 9.17535C11.1117 9.17535 9.17535 11.1117 9.17535 13.5C9.17535 14.7609 9.71547 15.8953 10.5763 16.6859L20.582 26.6916C21.1117 26.6455 21.6413 26.5942 22.1705 26.5377C24.4733 26.292 26.292 24.4733 26.5377 22.1705C26.5942 21.6413 26.6455 21.1117 26.6916 20.582L16.6859 10.5763Z" fill="url(#paint5_linear)"/>
<path d="M26.9477 16.4084L18.895 8.35591C18.7071 8.10934 18.4111 7.94928 18.0772 7.94928C17.5091 7.94928 17.0482 8.40988 17.0482 8.97822C17.0482 9.31213 17.2083 9.60815 17.4549 9.79601L26.8037 19.145C26.8671 18.2331 26.9151 17.3208 26.9477 16.4084Z" fill="url(#paint6_linear)"/>
<path d="M5.01451 10.2253C5.07075 9.82816 5.11359 9.42874 5.18507 9.03447C5.59026 6.80129 7.17126 5.28188 9.43184 5.20402C12.1536 5.1105 14.8837 5.10555 17.605 5.20361C20.0654 5.29218 21.8473 7.11399 21.9241 9.5752C22.0059 12.1886 22.0059 14.8085 21.9241 17.4219C21.8473 19.8831 20.0661 21.7047 17.6053 21.7935C14.8839 21.8918 12.1532 21.8942 9.43204 21.7921C6.97124 21.6996 5.27015 19.8737 5.10556 17.4087C5.09135 17.1955 5.04562 16.9842 5.01451 16.772C5.01451 14.5897 5.01451 12.4074 5.01451 10.2253ZM13.5023 20.3349C14.7477 20.3349 15.9944 20.3722 17.2382 20.3262C19.1883 20.2539 20.3878 19.0901 20.4333 17.1418C20.4898 14.7141 20.4898 12.2832 20.4333 9.85536C20.3878 7.90748 19.1875 6.71642 17.2382 6.67502C14.764 6.6227 12.2871 6.62311 9.81293 6.67502C7.87844 6.7156 6.67544 7.88255 6.62291 9.80901C6.55617 12.2673 6.55617 14.73 6.62291 17.1883C6.67544 19.1146 7.87844 20.2545 9.81313 20.3262C11.0413 20.372 12.2725 20.3349 13.5023 20.3349Z" fill="url(#paint7_linear)"/>
<path d="M5.01451 10.2253C5.07075 9.82816 5.11359 9.42874 5.18507 9.03447C5.59026 6.80129 7.17126 5.28188 9.43184 5.20402C12.1536 5.1105 14.8837 5.10555 17.605 5.20361C20.0654 5.29218 21.8473 7.11399 21.9241 9.5752C22.0059 12.1886 22.0059 14.8085 21.9241 17.4219C21.8473 19.8831 20.0661 21.7047 17.6053 21.7935C14.8839 21.8918 12.1532 21.8942 9.43204 21.7921C6.97124 21.6996 5.27015 19.8737 5.10556 17.4087C5.09135 17.1955 5.04562 16.9842 5.01451 16.772C5.01451 14.5897 5.01451 12.4074 5.01451 10.2253ZM13.5023 20.3349C14.7477 20.3349 15.9944 20.3722 17.2382 20.3262C19.1883 20.2539 20.3878 19.0901 20.4333 17.1418C20.4898 14.7141 20.4898 12.2832 20.4333 9.85536C20.3878 7.90748 19.1875 6.71642 17.2382 6.67502C14.764 6.6227 12.2871 6.62311 9.81293 6.67502C7.87844 6.7156 6.67544 7.88255 6.62291 9.80901C6.55617 12.2673 6.55617 14.73 6.62291 17.1883C6.67544 19.1146 7.87844 20.2545 9.81313 20.3262C11.0413 20.372 12.2725 20.3349 13.5023 20.3349Z" fill="white"/>
<path d="M13.5 9.1756C11.1117 9.1756 9.17538 11.1117 9.17538 13.5C9.17538 15.8885 11.1117 17.8247 13.5 17.8247C15.8885 17.8247 17.8246 15.8885 17.8246 13.5C17.8246 11.1117 15.8885 9.1756 13.5 9.1756ZM13.5 16.3357C11.9338 16.3357 10.6643 15.0662 10.6643 13.5C10.6643 11.9339 11.9338 10.6643 13.5 10.6643C15.0662 10.6643 16.3357 11.9339 16.3357 13.5C16.3357 15.0662 15.0662 16.3357 13.5 16.3357Z" fill="white"/>
<path d="M19.1059 8.97828C19.1059 9.54641 18.6453 10.007 18.0772 10.007C17.5091 10.007 17.0483 9.54641 17.0483 8.97828C17.0483 8.40994 17.5091 7.94934 18.0772 7.94934C18.6453 7.94934 19.1059 8.40994 19.1059 8.97828Z" fill="white"/>
<defs>
<radialGradient id="paint0_radial" cx="0" cy="0" r="1" gradientUnits="userSpaceOnUse" gradientTransform="translate(5.53485 23.5959) scale(29.7762)">
<stop stop-color="#FAE100"/>
<stop offset="0.0544" stop-color="#FADC04"/>
<stop offset="0.1167" stop-color="#FBCE0E"/>
<stop offset="0.1829" stop-color="#FCB720"/>
<stop offset="0.2514" stop-color="#FE9838"/>
<stop offset="0.3054" stop-color="#FF7950"/>
<stop offset="0.4922" stop-color="#FF1C74"/>
<stop offset="1" stop-color="#6C1CD1"/>
</radialGradient>
<linearGradient id="paint1_linear" x1="10.3556" y1="11.7312" x2="-35.3856" y2="-13.9982" gradientUnits="userSpaceOnUse">
<stop stop-color="#A1B5D8" stop-opacity="0"/>
<stop offset="0.3094" stop-color="#90A2BD" stop-opacity="0.309804"/>
<stop offset="0.7554" stop-color="#7C8B9C" stop-opacity="0.756863"/>
<stop offset="1" stop-color="#748290"/>
</linearGradient>
<linearGradient id="paint2_linear" x1="13.5" y1="23.8341" x2="13.5" y2="28.0428" gradientUnits="userSpaceOnUse">
<stop stop-color="#FAE100" stop-opacity="0"/>
<stop offset="0.3068" stop-color="#FCA800" stop-opacity="0.305882"/>
<stop offset="0.6275" stop-color="#FE7300" stop-opacity="0.627451"/>
<stop offset="0.8685" stop-color="#FF5200" stop-opacity="0.866667"/>
<stop offset="1" stop-color="#FF4500"/>
</linearGradient>
<linearGradient id="paint3_linear" x1="11.964" y1="11.9258" x2="5.28192" y2="5.2437" gradientUnits="userSpaceOnUse">
<stop stop-color="#833AB4" stop-opacity="0"/>
<stop offset="1" stop-color="#833AB4"/>
</linearGradient>
<linearGradient id="paint4_linear" x1="18.5045" y1="24.6949" x2="15.1693" y2="8.97213" gradientUnits="userSpaceOnUse">
<stop stop-color="#833AB4" stop-opacity="0"/>
<stop offset="1" stop-color="#833AB4"/>
</linearGradient>
<linearGradient id="paint5_linear" x1="19.7735" y1="19.7735" x2="6.37774" y2="6.37773" gradientUnits="userSpaceOnUse">
<stop stop-color="#833AB4" stop-opacity="0"/>
<stop offset="1" stop-color="#833AB4"/>
</linearGradient>
<linearGradient id="paint6_linear" x1="20.7672" y1="11.6682" x2="16.3374" y2="7.23843" gradientUnits="userSpaceOnUse">
<stop stop-color="#833AB4" stop-opacity="0"/>
<stop offset="1" stop-color="#833AB4"/>
</linearGradient>
<linearGradient id="paint7_linear" x1="18.8609" y1="8.17644" x2="7.93878" y2="19.0986" gradientUnits="userSpaceOnUse">
<stop stop-color="#833AB4"/>
<stop offset="0.0922" stop-color="#9C3495"/>
<stop offset="0.2927" stop-color="#DC2546"/>
<stop offset="0.392" stop-color="#FD1D1D"/>
<stop offset="0.5589" stop-color="#FC6831"/>
<stop offset="0.6887" stop-color="#FC9B40"/>
<stop offset="0.7521" stop-color="#FCAF45"/>
<stop offset="0.7806" stop-color="#FDB750"/>
<stop offset="0.8656" stop-color="#FECB6A"/>
<stop offset="0.9415" stop-color="#FFD87A"/>
<stop offset="1" stop-color="#FFDC80"/>
</linearGradient>
</defs>
</svg>
